/* XPM */
static char * 5_2_pixels_xpm[] = {
"200 14 8 1",
" 	c #5C94FC",
".	c #FCFCFC",
"+	c #FFFFFF",
"@	c #932F00",
"#	c #0000FF",
"$	c #000000",
"%	c #747474",
"&	c #D82800",
"                                                                                                                                                                                                        ",
"                                                                                                                                                                                                        ",
"                            .+                .+                            .+                .+                            .+                .+                            .+                .+        ",
" ..+               .+          ..+               ..+               .+          ..+               ..+               .+          ..+               ..+               .+          ..+               ..+    ",
"                                                                                                                                                                                                        ",
"                             @@@@@#                                                  #@@                              @@@@@@@#                           @@@@@              @@@@              @@        ",
"                                                                                                                                                                                             @@@        ",
"                 $                                                   @@                                                                                                                      @@@        ",
"                 $                                                  @@@                  @@@                                                                                               @ @@@        ",
"               @@@@          @@@@@@            @@                @  @@@       ##### #                                 @@@@@@@@                     @@@                  #                 @@ @@@        ",
"              @@                              @@@               @@  @@@                                                          @                                                        @@ @@@        ",
"             @@@                             @@@@@     %%      @@@  @@@                                    $       %%            @           ##                              %%         @ @@ @@@        ",
"            @@@@         &                  @@@@@@     %%     @@@@  @@@                                    $       %%            @                                           %%        @@ @@ @@@        ",
"@@@@@@@@@@@@@@@@@@@@@@@@@@   @@@@@@@@@@@@@@@@@@@@@@@@@@@@@@@@@@@@@  @@@@@@@@@@@@@@@@@@@@@@@@    @@@@@@@@@@@@@@@@@@@@@@@@@@@@@@@  @@@@@@@@@@@@@@@       @@@@@@@@@@@@@@@@@@@   @@  @@@@@@@@ @@ @@@@@@@@@@@"};
